<svg width="150" height="20" viewBox="0 0 150 20" fill="none" xmlns="http://www.w3.org/2000/svg">
<path d="M0.643466 19H4.64134V12.8693H8.00213C12.3509 12.8693 14.8807 10.2749 14.8807 6.49858C14.8807 2.74077 12.397 0.0909085 8.10369 0.0909085H0.643466V19ZM4.64134 9.66548V3.35938H7.33736C9.6456 3.35938 10.7628 4.61506 10.7628 6.49858C10.7628 8.37287 9.6456 9.66548 7.35582 9.66548H4.64134ZM16.7194 19H20.6526V10.9766C20.6526 9.23153 21.9268 8.03125 23.6626 8.03125C24.2073 8.03125 24.9552 8.12358 25.3245 8.24361V4.75355C24.9736 4.67045 24.4843 4.61506 24.0873 4.61506C22.4992 4.61506 21.1974 5.53835 20.6803 7.29261H20.5326V4.81818H16.7194V19ZM32.4767 19.277C35.9853 19.277 38.3489 17.5689 38.9029 14.9375L35.2651 14.6974C34.8681 15.7777 33.8525 16.3409 32.5414 16.3409C30.5748 16.3409 29.3283 15.0391 29.3283 12.9247V12.9155H38.986V11.8352C38.986 7.01562 36.0684 4.63352 32.3198 4.63352C28.1465 4.63352 25.4412 7.5973 25.4412 11.9737C25.4412 16.4702 28.1096 19.277 32.4767 19.277ZM29.3283 10.478C29.4114 8.86222 30.6394 7.5696 32.3844 7.5696C34.0925 7.5696 35.2743 8.78835 35.2836 10.478H29.3283ZM53.8616 4.81818H49.6975L46.7615 14.9652H46.6137L43.6684 4.81818H39.5136L44.4717 19H48.9035L53.8616 4.81818ZM60.5974 19H64.5953V12.2969H67.5129L71.0953 19H75.5086L71.4923 11.6506C73.6436 10.7273 74.8346 8.85298 74.8346 6.26776C74.8346 2.50994 72.351 0.0909085 68.0576 0.0909085H60.5974V19ZM64.5953 9.08381V3.35938H67.2913C69.5995 3.35938 70.7167 4.38423 70.7167 6.26776C70.7167 8.14204 69.5995 9.08381 67.3098 9.08381H64.5953ZM83.1364 19.277C86.6449 19.277 89.0086 17.5689 89.5625 14.9375L85.9247 14.6974C85.5277 15.7777 84.5121 16.3409 83.201 16.3409C81.2344 16.3409 79.988 15.0391 79.988 12.9247V12.9155H89.6456V11.8352C89.6456 7.01562 86.728 4.63352 82.9794 4.63352C78.8061 4.63352 76.1009 7.5973 76.1009 11.9737C76.1009 16.4702 78.7692 19.277 83.1364 19.277ZM79.988 10.478C80.0711 8.86222 81.299 7.5696 83.0441 7.5696C84.7522 7.5696 85.934 8.78835 85.9432 10.478H79.988ZM94.2242 19H98.379L100.817 10.081H100.992L103.429 19H107.594L111.444 4.81818H107.473L105.313 14.2912H105.193L102.866 4.81818H98.9607L96.6709 14.3466H96.5417L94.3442 4.81818H90.3648L94.2242 19ZM116.902 19.2678C118.998 19.2678 120.355 18.3537 121.047 17.0334H121.158V19H124.888V9.43466C124.888 6.0554 122.026 4.63352 118.868 4.63352C115.471 4.63352 113.236 6.25852 112.691 8.84375L116.329 9.1392C116.597 8.19744 117.437 7.50497 118.85 7.50497C120.189 7.50497 120.955 8.17898 120.955 9.34233V9.39773C120.955 10.3118 119.985 10.4318 117.52 10.6719C114.713 10.9304 112.193 11.8722 112.193 15.0391C112.193 17.8459 114.196 19.2678 116.902 19.2678ZM118.028 16.5533C116.819 16.5533 115.951 15.9901 115.951 14.9098C115.951 13.8018 116.865 13.2571 118.25 13.0632C119.108 12.9432 120.512 12.7401 120.983 12.4261V13.9311C120.983 15.4176 119.755 16.5533 118.028 16.5533ZM127.255 19H131.189V10.9766C131.189 9.23153 132.463 8.03125 134.199 8.03125C134.743 8.03125 135.491 8.12358 135.861 8.24361V4.75355C135.51 4.67045 135.02 4.61506 134.623 4.61506C133.035 4.61506 131.733 5.53835 131.216 7.29261H131.069V4.81818H127.255V19ZM141.776 19.2308C144.065 19.2308 145.256 17.9105 145.801 16.7287H145.967V19H149.845V0.0909085H145.921V7.20028H145.801C145.275 6.04616 144.139 4.63352 141.766 4.63352C138.655 4.63352 136.023 7.05256 136.023 11.9276C136.023 16.6733 138.544 19.2308 141.776 19.2308ZM143.022 16.1009C141.092 16.1009 140.04 14.3835 140.04 11.9091C140.04 9.45312 141.074 7.76349 143.022 7.76349C144.933 7.76349 146.004 9.37926 146.004 11.9091C146.004 14.4389 144.915 16.1009 143.022 16.1009Z" fill="black"/>
</svg>
